<svg width="80" height="26" viewBox="0 0 80 26" fill="none" xmlns="http://www.w3.org/2000/svg">
<path d="M60.5371 9L62.332 14.5957L64.1279 9H66.6738V17.043H64.7295V15.165L64.918 11.3203L62.9736 17.043H61.6914L59.7441 11.3174L59.9346 15.165V17.043H57.9961V9H60.5371Z" fill="#D4F897"/>
<path d="M49.1084 9V10.4971H45.667V12.3477H48.7939V13.8389H45.667V17.043H43.7285V9H49.1084Z" fill="#D4F897"/>
<path d="M30.3496 12.5469L31.0244 11.5244L32.7588 9H35.1504L32.4355 12.5518L35.1504 17.043H32.8584L31.1436 14.0518L30.3496 14.9199V17.043H28.4111V9H30.3496V12.5469Z" fill="#D4F897"/>
<path d="M19.5518 9V10.4971H15.9385V12.1924H18.9824V13.6348H15.9385V15.5518H19.5352V17.043H14V9H19.5518Z" fill="#D4F897"/>
<path d="M80 26H0V0H80V26ZM3 3V23H77V3H3Z" fill="#D4F897"/>
</svg>
